HIERARCHY
ROOT Hips
{
  OFFSET 5.80788e-005 67.184 3.4734
  CHANNELS 6 Xposition Yposition Zposition Zrotation Xrotation Yrotation
  JOINT Chest
  {
    OFFSET 0 8.7983 -4.7612
    CHANNELS 3 Zrotation Xrotation Yrotation
    JOINT Chest2
    {
      OFFSET 0 8.0291 0.4195
      CHANNELS 3 Zrotation Xrotation Yrotation
      JOINT Chest3
      {
        OFFSET 0 9.9351 -2.2114
        CHANNELS 3 Zrotation Xrotation Yrotation
        JOINT Neck
        {
          OFFSET 0 22.3885 -0.4656
          CHANNELS 3 Zrotation Xrotation Yrotation
          JOINT Head
          {
            OFFSET -0.0001 12.643 3.4389
            CHANNELS 3 Zrotation Xrotation Yrotation
            End Site
            {
              OFFSET 0.0001 17.6655 0.5274
            }
          }
        }
        JOINT LeftCollar
        {
          OFFSET 2.2603 21.606 7.4023
          CHANNELS 3 Zrotation Xrotation Yrotation
          JOINT LeftShoulder
          {
            OFFSET 13.5163 -1.1332 -5.0146
            CHANNELS 3 Zrotation Xrotation Yrotation
            JOINT LeftElbow
            {
              OFFSET -0.0995 -28.05 -0.2431
              CHANNELS 3 Zrotation Xrotation Yrotation
              JOINT LeftWrist
              {
                OFFSET 0.0679 -23.3996 -0.1402
                CHANNELS 3 Zrotation Xrotation Yrotation
                JOINT LeftFinger1
                {
                  OFFSET 0.7932 -9.069 2.5189
                  CHANNELS 3 Zrotation Xrotation Yrotation
                  JOINT LeftFinger11
                  {
                    OFFSET -0.8272 -3.3923 0.5977
                    CHANNELS 3 Zrotation Xrotation Yrotation
                    JOINT LeftFinger12
                    {
                      OFFSET -0.5649 -2.3158 0.4082
                      CHANNELS 3 Zrotation Xrotation Yrotation
                      End Site
                      {
                        OFFSET -0.4919 -1.6479 0.2673
                      }
                    }
                  }
                }
                JOINT LeftFinger2
                {
                  OFFSET 0.9159 -9.2044 0.2193
                  CHANNELS 3 Zrotation Xrotation Yrotation
                  JOINT LeftFinger21
                  {
                    OFFSET 0.0117 -4.1944 -0.0248
                    CHANNELS 3 Zrotation Xrotation Yrotation
                    JOINT LeftFinger22
                    {
                      OFFSET 0.0071 -2.3249 -0.0142
                      CHANNELS 3 Zrotation Xrotation Yrotation
                      End Site
                      {
                        OFFSET -0.1475 -2.0882 0.0028
                      }
                    }
                  }
                }
                JOINT LeftFinger3
                {
                  OFFSET 0.6113 -8.7231 -2.0637
                  CHANNELS 3 Zrotation Xrotation Yrotation
                  JOINT LeftFinger31
                  {
                    OFFSET -0.1927 -3.8059 -0.2383
                    CHANNELS 3 Zrotation Xrotation Yrotation
                    JOINT LeftFinger32
                    {
                      OFFSET -0.1091 -2.1688 -0.1362
                      CHANNELS 3 Zrotation Xrotation Yrotation
                      End Site
                      {
                        OFFSET -0.2358 -1.9176 -0.0906
                      }
                    }
                  }
                }
                JOINT LeftFinger4
                {
                  OFFSET -0.6151 -8.0947 -3.5641
                  CHANNELS 3 Zrotation Xrotation Yrotation
                  JOINT LeftFinger41
                  {
                    OFFSET -0.4882 -2.341 -0.6462
                    CHANNELS 3 Zrotation Xrotation Yrotation
                    JOINT LeftFinger42
                    {
                      OFFSET -0.3575 -1.7167 -0.4742
                      CHANNELS 3 Zrotation Xrotation Yrotation
                      End Site
                      {
                        OFFSET -0.4187 -1.5237 -0.3496
                      }
                    }
                  }
                }
                JOINT LeftFinger0
                {
                  OFFSET -1.42 -1.8761 1.4223
                  CHANNELS 3 Zrotation Xrotation Yrotation
                  JOINT LeftFinger01
                  {
                    OFFSET -1.1471 -3.4929 2.6334
                    CHANNELS 3 Zrotation Xrotation Yrotation
                    JOINT LeftFinger02
                    {
                      OFFSET -0.823 -2.3 1.6571
                      CHANNELS 3 Zrotation Xrotation Yrotation
                      End Site
                      {
                        OFFSET -0.5822 -1.6914 1.1582
                      }
                    }
                  }
                }
              }
            }
          }
        }
        JOINT RightCollar
        {
          OFFSET -2.2603 21.606 7.4023
          CHANNELS 3 Zrotation Xrotation Yrotation
          JOINT RightShoulder
          {
            OFFSET -13.5187 -1.1334 -5.0155
            CHANNELS 3 Zrotation Xrotation Yrotation
            JOINT RightElbow
            {
              OFFSET 0.0994 -28.0499 -0.2431
              CHANNELS 3 Zrotation Xrotation Yrotation
              JOINT RightWrist
              {
                OFFSET -0.0679 -23.3996 -0.1402
                CHANNELS 3 Zrotation Xrotation Yrotation
                JOINT RightFinger1
                {
                  OFFSET -0.7932 -9.0691 2.5189
                  CHANNELS 3 Zrotation Xrotation Yrotation
                  JOINT RightFinger11
                  {
                    OFFSET 0.8272 -3.3923 0.5977
                    CHANNELS 3 Zrotation Xrotation Yrotation
                    JOINT RightFinger12
                    {
                      OFFSET 0.565 -2.3158 0.4082
                      CHANNELS 3 Zrotation Xrotation Yrotation
                      End Site
                      {
                        OFFSET 0.4919 -1.6479 0.2673
                      }
                    }
                  }
                }
                JOINT RightFinger2
                {
                  OFFSET -0.916 -9.2044 0.2193
                  CHANNELS 3 Zrotation Xrotation Yrotation
                  JOINT RightFinger21
                  {
                    OFFSET -0.0117 -4.1944 -0.0248
                    CHANNELS 3 Zrotation Xrotation Yrotation
                    JOINT RightFinger22
                    {
                      OFFSET -0.0071 -2.3249 -0.0142
                      CHANNELS 3 Zrotation Xrotation Yrotation
                      End Site
                      {
                        OFFSET 0.1475 -2.0882 0.0028
                      }
                    }
                  }
                }
                JOINT RightFinger3
                {
                  OFFSET -0.6113 -8.7231 -2.0637
                  CHANNELS 3 Zrotation Xrotation Yrotation
                  JOINT RightFinger31
                  {
                    OFFSET 0.1927 -3.8059 -0.2383
                    CHANNELS 3 Zrotation Xrotation Yrotation
                    JOINT RightFinger32
                    {
                      OFFSET 0.1091 -2.1688 -0.1362
                      CHANNELS 3 Zrotation Xrotation Yrotation
                      End Site
                      {
                        OFFSET 0.2358 -1.9176 -0.0906
                      }
                    }
                  }
                }
                JOINT RightFinger4
                {
                  OFFSET 0.6151 -8.0947 -3.564
                  CHANNELS 3 Zrotation Xrotation Yrotation
                  JOINT RightFinger41
                  {
                    OFFSET 0.4882 -2.341 -0.6462
                    CHANNELS 3 Zrotation Xrotation Yrotation
                    JOINT RightFinger42
                    {
                      OFFSET 0.3574 -1.7166 -0.4742
                      CHANNELS 3 Zrotation Xrotation Yrotation
                      End Site
                      {
                        OFFSET 0.4187 -1.5237 -0.3496
                      }
                    }
                  }
                }
                JOINT RightFinger0
                {
                  OFFSET 1.4199 -1.8761 1.4221
                  CHANNELS 3 Zrotation Xrotation Yrotation
                  JOINT RightFinger01
                  {
                    OFFSET 1.1472 -3.4929 2.6336
                    CHANNELS 3 Zrotation Xrotation Yrotation
                    JOINT RightFinger02
                    {
                      OFFSET 0.8229 -2.3 1.6571
                      CHANNELS 3 Zrotation Xrotation Yrotation
                      End Site
                      {
                        OFFSET 0.5822 -1.6914 1.1582
                      }
                    }
                  }
                }
              }
            }
          }
        }
      }
    }
  }
  JOINT RightHip
  {
    OFFSET -9.412 3.9771 -0.7758
    CHANNELS 3 Zrotation Xrotation Yrotation
    JOINT RightKnee
    {
      OFFSET -0.7531 -40.938 0
      CHANNELS 3 Zrotation Xrotation Yrotation
      JOINT RightAnkle
      {
        OFFSET 0 -40.1986 0
        CHANNELS 3 Zrotation Xrotation Yrotation
        JOINT RightToe
        {
          OFFSET 0 -4.4182 9.239
          CHANNELS 3 Zrotation Xrotation Yrotation
          End Site
          {
            OFFSET 0 0 6.1981
          }
        }
      }
    }
  }
  JOINT LeftHip
  {
    OFFSET 9.4119 3.9773 -0.7758
    CHANNELS 3 Zrotation Xrotation Yrotation
    JOINT LeftKnee
    {
      OFFSET 0.7532 -40.9383 0
      CHANNELS 3 Zrotation Xrotation Yrotation
      JOINT LeftAnkle
      {
        OFFSET 0 -40.1986 0
        CHANNELS 3 Zrotation Xrotation Yrotation
        JOINT LeftToe
        {
          OFFSET 0 -4.4182 9.239
          CHANNELS 3 Zrotation Xrotation Yrotation
          End Site
          {
            OFFSET 0 0 6.1981
          }
        }
      }
    }
  }
}
MOTION
Frames:	5
Frame Time:	0.0333333
5.80788e-005 67.184 3.4734 0 0 -0 0 0 -0 0 0 -0 0 0 -0 0 0 -0 0 0 -0 0 0 -12.5014 88.1196 14.2451 10.6914 -0.00160068 -0.00239207 0.000740045 -8.4365e-005 7.00714e-005 -9.52055e-007 9.93923e-017 -1.98785e-016 -1.59028e-015 9.93923e-017 -5.96354e-016 -1.59028e-015 -9.93923e-017 -5.96354e-016 -1.59028e-015 9.93923e-017 -1.98785e-016 -1.59028e-015 -0.0128176 0.00232552 8.52707e-005 9.93923e-017 5.96354e-016 -0 9.93923e-017 -1.98785e-016 -1.59028e-015 -0.0160551 0.00299681 0.000857156 -2.48481e-016 0 3.18055e-015 9.93923e-017 -1.98785e-016 -1.59028e-015 -0.0125865 0.0031206 0.00282719 0 1.98785e-016 -0 9.93923e-017 -1.98785e-016 -1.59028e-015 9.93923e-017 -5.96354e-016 -1.59028e-015 -9.93923e-017 -5.96354e-016 -1.59028e-015 -0.865644 0.16582 7.03859 -88.0329 10.2057 -10.5567 0.0015593 -0.00248883 -0.000788628 7.87605e-005 4.10553e-005 1.24965e-005 -3.97569e-016 -7.95139e-016 3.18055e-015 -1.98785e-016 -3.97569e-016 3.18055e-015 -1.98785e-016 0 3.18055e-015 -3.97569e-016 -7.95139e-016 3.18055e-015 0.0129473 0.00231697 -8.70038e-005 9.93923e-017 -7.95139e-016 1.59028e-015 -3.97569e-016 -7.95139e-016 3.18055e-015 0.0163314 0.00303369 -0.000872333 3.97569e-016 7.95139e-016 -3.18055e-015 -3.97569e-016 -7.95139e-016 3.18055e-015 0.0145763 0.00367772 -0.00326275 9.93923e-017 -3.97569e-016 -0 -3.97569e-016 -7.95139e-016 3.18055e-015 -1.98785e-016 -3.97569e-016 3.18055e-015 -1.98785e-016 0 3.18055e-015 3.42485 1.36937 -0.0640303 0.000136572 0.69354 0.00145564 -3.42573 -2.06297 -0.0607933 -3.19502e-024 0 -1.48106e-024 -3.42498 1.36123 0.0639712 -6.769e-005 0.712612 -0.0012277 3.42582 -2.07388 0.0612819 2.55305e-023 0 -2.31416e-026 
39.8357 20.0494 1.45284 0.215919 -51.9965 -179.545 -0.215527 12.2918 -0.0978573 -0.424197 24.584 -0.152545 -0.424196 24.584 -0.152545 1.31013e-005 -33.0006 6.20645e-006 4.47774e-007 -15.0017 3.56323e-008 8.10311 -26.6696 -59.6472 90.9408 -8.66182 14.497 0.713741 -5.51647 11.736 62.8795 -7.60284 21.0549 -2.64834e-031 3.18055e-015 4.77083e-015 -4.41391e-031 6.36111e-015 3.97569e-015 2.64834e-031 -3.18055e-015 4.77083e-015 -2.64834e-031 3.18055e-015 4.77083e-015 -0.0128179 0.00232089 8.51916e-005 -4.77083e-015 3.18055e-015 7.95139e-016 -2.64834e-031 3.18055e-015 4.77083e-015 -0.0160211 0.00298122 0.000854953 3.18055e-015 3.18055e-015 4.77083e-015 -2.64834e-031 3.18055e-015 4.77083e-015 -0.0125848 0.00312394 0.00283404 -3.18055e-015 3.18055e-015 7.95139e-016 -2.64834e-031 3.18055e-015 4.77083e-015 -4.41391e-031 6.36111e-015 3.97569e-015 2.64834e-031 -3.18055e-015 4.77083e-015 -5.81996 -24.9144 43.7714 -92.708 -33.653 -14.4958 -6.8938 -5.53904 -12.7129 -61.171 -2.89185 -12.7198 1.59028e-015 0 3.97569e-016 -8.82781e-032 3.18055e-015 1.59028e-015 0 0 -0 1.59028e-015 0 3.97569e-016 0.0129545 0.00232255 -9.23137e-005 3.18055e-015 0 -4.77083e-015 1.59028e-015 0 3.97569e-016 0.0163149 0.00303439 -0.000872238 1.59028e-015 0 3.57812e-015 1.59028e-015 0 3.97569e-016 0.0145344 0.00366839 -0.0032543 3.18055e-015 6.36111e-015 1.19271e-015 1.59028e-015 0 3.97569e-016 -8.82781e-032 3.18055e-015 1.59028e-015 0 0 -0 -140.906 -21.2795 -170.063 -133.27 69.5055 131.882 -15.0476 -6.93324 -3.4072 -1.22786e-006 6.07633e-007 4.86621e-006 140.917 -21.2964 170.055 133.337 69.5096 -131.955 15.0269 -6.95152 3.38997 3.26334e-006 6.96819e-007 -1.76765e-007 
39.8357 20.0503 1.69265 0.215918 -51.9965 -179.545 -0.216022 12.2698 -0.097493 -0.425296 24.54 -0.151753 -0.425295 24.54 -0.151753 0.0606771 -32.7411 0.0102182 -1.79313e-007 -14.4248 9.03553e-008 7.86009 -26.5394 -57.7344 91.1119 -10.6909 14.3996 1.21558 -6.01521 11.7556 62.3534 -7.32037 20.5111 -1.07732e-005 2.12003e-006 1.35657e-006 1.57803e-006 -3.32956e-006 5.55502e-007 1.40315e-005 8.24408e-006 2.07197e-006 -1.07732e-005 2.12003e-006 1.35657e-006 -0.0128703 0.00232525 9.02966e-005 3.42079e-006 -2.21466e-006 -3.3796e-006 -1.07732e-005 2.12003e-006 1.35657e-006 -0.0160756 0.00300204 0.000856116 1.57791e-006 -3.32957e-006 5.55589e-007 -1.07732e-005 2.12003e-006 1.35657e-006 -0.0125524 0.00312963 0.0028282 6.13369e-006 -8.49042e-006 -1.04412e-005 -1.07732e-005 2.12003e-006 1.35657e-006 1.57803e-006 -3.32956e-006 5.55502e-007 1.40315e-005 8.24408e-006 2.07197e-006 -5.60181 -24.9415 42.2508 -92.8655 -35.0244 -14.5218 -7.05839 -6.27665 -12.7203 -60.8566 -2.58467 -12.2075 -1.01861e-005 6.99317e-007 2.86573e-007 7.3742e-006 9.41504e-006 -1.2626e-005 -2.41738e-006 -9.64907e-007 9.83887e-006 -1.01861e-005 6.99317e-007 2.86573e-007 0.0129131 0.00230267 -9.45209e-005 -1.07316e-006 7.18928e-007 7.56328e-006 -1.01861e-005 6.99317e-007 2.86573e-007 0.0163207 0.00303259 -0.000872015 3.56783e-006 1.20271e-005 -7.71874e-006 -1.01861e-005 6.99317e-007 2.86573e-007 0.0145913 0.00368022 -0.00327169 9.52057e-006 4.08406e-006 3.2175e-006 -1.01861e-005 6.99317e-007 2.86573e-007 7.3742e-006 9.41504e-006 -1.2626e-005 -2.41738e-006 -9.64907e-007 9.83887e-006 -141.072 -21.345 -170.168 -133.33 69.487 131.935 -15.0826 -6.63009 -3.51948 7.01927e-006 3.16706e-006 -3.0067e-006 141.082 -21.361 170.16 133.398 69.491 -132.008 15.0628 -6.6473 3.50303 -1.63184e-006 1.26764e-006 7.99136e-008 
39.8357 20.0511 1.93247 0.215919 -51.9965 -179.545 -0.216369 12.2478 -0.0970482 -0.426105 24.4959 -0.150828 -0.426105 24.4958 -0.150828 0.12117 -32.4813 0.0200836 2.10282e-008 -13.847 -4.19248e-008 7.6113 -26.4159 -55.8132 91.282 -12.7309 14.3073 1.71808 -6.51399 11.7797 61.8301 -7.03277 19.9699 1.76556e-031 -3.18055e-015 3.18055e-015 -3.42014e-006 -3.04214e-007 3.37997e-006 -1.57805e-006 1.47015e-006 -5.55352e-007 1.76556e-031 -3.18055e-015 3.18055e-015 -0.0127831 0.00231455 8.255e-005 -4.41391e-032 3.18055e-015 7.95139e-016 1.76556e-031 -3.18055e-015 3.18055e-015 -0.0160286 0.00298834 0.000868317 2.7124e-006 -5.1441e-006 -7.0617e-006 1.76556e-031 -3.18055e-015 3.18055e-015 -0.0126288 0.00313126 0.002843 -3.18055e-015 0 -3.97569e-015 1.76556e-031 -3.18055e-015 3.18055e-015 -3.42014e-006 -3.04214e-007 3.37997e-006 -1.57805e-006 1.47015e-006 -5.55352e-007 -5.38376 -24.974 40.7251 -93.0275 -36.399 -14.5534 -7.2229 -7.01454 -12.7298 -60.5448 -2.2746 -11.6968 -3.18055e-015 9.54166e-015 6.75868e-015 1.59028e-015 3.18055e-015 2.38542e-015 1.59028e-015 -3.18055e-015 7.55382e-015 -3.18055e-015 9.54166e-015 6.75868e-015 0.0129115 0.00231697 -9.59666e-005 -4.77083e-015 -6.36111e-015 6.36111e-015 -3.18055e-015 9.54166e-015 6.75868e-015 0.0163002 0.00301631 -0.000868798 1.59028e-015 -3.18055e-015 -3.97569e-016 -3.18055e-015 9.54166e-015 6.75868e-015 0.0146321 0.00369429 -0.0032767 -1.59028e-015 0 2.38542e-015 -3.18055e-015 9.54166e-015 6.75868e-015 1.59028e-015 3.18055e-015 2.38542e-015 1.59028e-015 -3.18055e-015 7.55382e-015 -141.238 -21.4099 -170.273 -133.391 69.4683 131.989 -15.1168 -6.32682 -3.63162 -1.63386e-006 -2.2558e-006 6.67044e-008 141.248 -21.4252 170.266 133.458 69.4723 -132.062 15.0981 -6.34301 3.6159 1.63195e-006 -2.44491e-007 -7.14463e-008 
39.8357 20.052 2.17229 0.215919 -51.9965 -179.545 -0.216717 12.2256 -0.0966004 -0.426917 24.4516 -0.149897 -0.426916 24.4516 -0.149897 0.181498 -32.2212 0.0296064 2.08563e-008 -13.2682 5.41323e-008 7.35714 -26.2994 -53.8846 91.4502 -14.7808 14.2199 2.22243 -7.01262 11.8081 61.3094 -6.7401 19.4313 -6.36111e-015 3.18055e-015 1.59028e-015 -3.18055e-015 3.18055e-015 -2.38542e-015 -3.18055e-015 3.18055e-015 7.95139e-016 -6.36111e-015 3.18055e-015 1.59028e-015 -0.0127996 0.00233818 0.000101787 -3.18055e-015 0 -3.97569e-015 -6.36111e-015 3.18055e-015 1.59028e-015 -0.0160361 0.00298728 0.000852533 2.20695e-031 3.18055e-015 -3.97569e-015 -6.36111e-015 3.18055e-015 1.59028e-015 -0.012557 0.00311773 0.00282333 3.18055e-015 -1.59028e-014 -3.18055e-015 -6.36111e-015 3.18055e-015 1.59028e-015 -3.18055e-015 3.18055e-015 -2.38542e-015 -3.18055e-015 3.18055e-015 7.95139e-016 -5.16605 -25.0118 39.1947 -93.1932 -37.7762 -14.5902 -7.38841 -7.75312 -12.7415 -60.2358 -1.96153 -11.1876 -1.35774e-006 -1.10705e-006 -2.46244e-006 -2.93378e-006 9.13781e-007 1.73744e-006 -0 0 7.95139e-016 -1.35774e-006 -1.10705e-006 -2.46244e-006 0.0129082 0.00231019 -8.02896e-005 -4.25488e-006 3.88701e-006 6.48624e-006 -1.35774e-006 -1.10705e-006 -2.46244e-006 0.0163553 0.00303815 -0.000870619 -3.18055e-015 3.18055e-015 -7.95139e-016 -1.35774e-006 -1.10705e-006 -2.46244e-006 0.0145396 0.00366409 -0.00324879 1.59028e-015 -1.59028e-014 -5.1684e-015 -1.35774e-006 -1.10705e-006 -2.46244e-006 -2.93378e-006 9.13781e-007 1.73744e-006 -0 0 7.95139e-016 -141.404 -21.4745 -170.378 -133.451 69.4495 132.043 -15.1505 -6.02335 -3.74356 -0 -1.01293e-006 -0 141.414 -21.489 170.372 133.518 69.4534 -132.116 15.1327 -6.03852 3.72859 -3.18055e-015 -2.93879e-009 -9.54166e-015 
